<svg width="40" height="41" viewBox="0 0 40 41" fill="none" xmlns="http://www.w3.org/2000/svg">
<rect y="40.8799" width="40" height="40" rx="12" transform="rotate(-90 0 40.8799)" fill="#383A42"/>
<path d="M24.0002 20.8801C24.0009 20.7485 23.9757 20.618 23.926 20.4962C23.8762 20.3743 23.8029 20.2635 23.7102 20.1701L17.7102 14.1701C17.5219 13.9818 17.2665 13.876 17.0002 13.876C16.7339 13.876 16.4785 13.9818 16.2902 14.1701C16.1019 14.3584 15.9961 14.6138 15.9961 14.8801C15.9961 15.1464 16.1019 15.4018 16.2902 15.5901L21.5902 20.8801L16.3002 26.1701C16.1364 26.3614 16.0508 26.6074 16.0605 26.8591C16.0702 27.1108 16.1745 27.3495 16.3526 27.5276C16.5307 27.7057 16.7695 27.8101 17.0211 27.8198C17.2728 27.8295 17.5189 27.7439 17.7102 27.5801L23.7102 21.5801C23.8949 21.3938 23.9991 21.1424 24.0002 20.8801Z" fill="white" fill-opacity="0.6"/>
</svg>
