<svg width="40" height="41" viewBox="0 0 40 41" fill="none" xmlns="http://www.w3.org/2000/svg">
<rect y="0.879883" width="40" height="40" rx="12" fill="#383A42"/>
<path d="M15.9998 20.8801C15.9991 20.7485 16.0243 20.618 16.074 20.4962C16.1238 20.3743 16.1971 20.2635 16.2898 20.1701L22.2898 14.1701C22.4781 13.9818 22.7335 13.876 22.9998 13.876C23.2661 13.876 23.5215 13.9818 23.7098 14.1701C23.8981 14.3584 24.0039 14.6138 24.0039 14.8801C24.0039 15.1464 23.8981 15.4018 23.7098 15.5901L18.4098 20.8801L23.6998 26.1701C23.8636 26.3614 23.9492 26.6074 23.9395 26.8591C23.9298 27.1108 23.8255 27.3495 23.6474 27.5276C23.4693 27.7057 23.2305 27.8101 22.9789 27.8198C22.7272 27.8295 22.4811 27.7439 22.2898 27.5801L16.2898 21.5801C16.1051 21.3938 16.0009 21.1424 15.9998 20.8801Z" fill="white" fill-opacity="0.6"/>
</svg>
